<?xml version="1.0" encoding="UTF-8"?>
<svg
  version="1.1"
  height="100"
  xmlns="http://www.w3.org/2000/svg"
  viewBox="0 0 385 400">
  <g>
    <g>
      <path fill-rule="evenodd" clip-rule="evenodd" fill="#FFFFFF" d="M0.5,262.0195313        C0.5,139.2568359,81.230957,35.3525391,192.5,0.5c111.2685547,34.8525391,192,138.7568359,192,261.5195313v63.6416016        c0,29.9941406-21.3037109,55.0146484-49.6015625,60.7607422l-0.1894531,0.0380859l-0.1865234,0.0371094l-0.1875,0.0371094        C288.4111328,395.7021484,241.0175781,400.5009766,192.5,400.5009766c-48.5185547,0-95.9111328-4.7988281-141.8349609-13.9667969        l-0.1875-0.0371094l-0.1865234-0.0371094l-0.1899414-0.0380859C21.8037109,380.6757813,0.5,355.6552734,0.5,325.6611328        C0.5,291.4199219,0.5,384.7822266,0.5,262.0195313z"/>
    </g>
    <g>
      <path fill-rule="evenodd" clip-rule="evenodd" fill="#006B54" d="M192.5,13.1035156            c104.5498047,34.4194336,180,132.8706055,180,248.9160156v63.6416016c0,24.1728516-17.1660156,44.3662109-39.9824219,48.9990234            c-45.1630859,9.015625-92.3027344,13.8408203-140.0175781,13.8408203S98.1708984,383.78125,53.0087891,374.765625            C30.1914063,370.1318359,12.5,349.8339844,12.5,325.6611328v-63.6416016C12.5,145.9741211,87.9501953,47.5229492,192.5,13.1035156            z"/>
    </g>
  </g>

  <text
    x="50%"
    y="300"
    font-size="180"
    font-family="sans-serif"
    fill="#fff"
    font-weight="400"
    text-anchor="middle"
    id="value">
  </text>

  <script>
    var val = location.search.substr(1);
    document.getElementById('value').textContent = val;
  </script>

</svg>
