<?xml version="1.0" encoding="UTF-8" standalone="no"?>
<svg width="198px" height="114px" viewBox="0 0 198 114" version="1.1" xmlns="http://www.w3.org/2000/svg" xmlns:xlink="http://www.w3.org/1999/xlink" xmlns:sketch="http://www.bohemiancoding.com/sketch/ns">
    <!-- Generator: Sketch 3.3.1 (12002) - http://www.bohemiancoding.com/sketch -->
    <title>Artboard 1</title>
    <desc>Created with Sketch.</desc>
    <defs></defs>
    <g id="Page-1" stroke="none" stroke-width="1" fill="none" fill-rule="evenodd" sketch:type="MSPage">
        <g id="Artboard-1" sketch:type="MSArtboardGroup">
            <g id="Caltrain_logo" sketch:type="MSLayerGroup" transform="translate(2.000000, 0.000000)">
                <path d="M74.686,72.818 L63.827,72.818 L71.143,35.188 L82.001,35.188 L74.686,72.818" id="Shape" fill="#FFFFFF" sketch:type="MSShapeGroup"></path>
                <path d="M51.347,72.818 C51.318,71.555 51.466,70.239 51.719,68.924 C48.898,72.159 45.534,73.366 41.696,73.366 C36.484,73.366 32.485,70.511 33.574,64.917 C34.436,60.472 38.47,57.512 42.598,56.304 C46.376,55.209 50.248,54.768 53.966,54.548 L54.008,54.332 C54.501,51.807 54.032,50.821 51.401,50.821 C49.26,50.821 47.109,51.767 46.321,54.127 L37.99,54.135 C39.514,46.846 46.321,44.239 53.009,44.239 C56.301,44.239 60.438,44.674 62.797,46.652 C65.974,49.23 64.827,52.852 64.052,56.854 L62.143,66.674 C61.737,68.759 61.387,70.845 61.824,72.82 L51.347,72.82 L51.347,72.818 Z M52.963,59.708 C50.276,59.982 45.729,60.805 45.067,64.206 C44.716,66.015 45.718,66.782 47.419,66.782 C51.531,66.782 52.259,63.326 52.855,60.255 L52.963,59.708 L52.963,59.708 Z" id="Shape" fill="#FFFFFF" sketch:type="MSShapeGroup"></path>
                <path d="M85.378,57.216 C84.866,59.873 84.347,62.552 84.347,62.552 L84.305,62.773 C83.999,64.336 83.649,65.813 83.704,67.176 C83.709,67.305 83.681,67.41 83.559,67.431 C83.543,67.357 83.533,67.281 83.519,67.207 L83.519,67.22 C82.873,63.824 82.531,60.319 82.531,56.733 C82.531,55.11 82.602,53.504 82.739,51.917 L86.665,51.917 L85.378,57.216 L85.378,57.216 Z M133.002,64.205 C132.647,66.014 133.651,66.783 135.352,66.783 C139.467,66.783 140.192,63.327 140.79,60.256 L140.898,59.705 C138.212,59.982 133.661,60.804 133.002,64.205 L133.002,64.205 Z M84.121,69.478 C84.132,69.589 84.177,69.726 84.264,69.947 C84.369,70.139 84.491,70.329 84.625,70.511 C86.32,72.818 88.935,73.749 91.917,73.366 L98.494,72.541 L100.018,64.701 C98.924,64.972 97.838,65.194 96.796,65.194 C94.218,65.194 94.745,63.602 95.141,61.571 L97.02,51.917 L102.504,51.917 L103.891,44.783 L98.294,44.783 L100.118,35.182 L90.88,35.182 L88.481,44.783 L83.814,44.783 C89.287,19.691 111.632,0.894 138.366,0.894 C165.108,0.894 187.459,19.696 192.924,44.798 C191.785,44.408 190.515,44.236 189.291,44.236 C185.891,44.236 182.397,45.552 180.46,48.734 L180.355,48.734 L181.119,44.782 L170.861,44.782 L165.415,72.816 L176.274,72.816 L179.419,56.634 C179.867,54.33 180.643,51.752 183.661,51.752 C186.02,51.752 185.561,54.109 185.232,55.812 L181.925,72.816 L191.851,72.816 C184.944,95.812 163.614,112.568 138.367,112.568 C112.326,112.568 90.445,94.738 84.271,70.617 C84.105,70.061 83.947,69.539 83.873,69.325 C83.984,69.301 84.086,69.364 84.121,69.478 L84.121,69.478 Z M157.707,42.1 L168.568,42.1 L170.02,34.639 L159.157,34.639 L157.707,42.1 L157.707,42.1 Z M120.944,54.111 C121.658,54.111 122.317,54.111 123.179,54.127 L125.09,44.349 L123.63,44.238 C119.359,43.908 116.799,46.651 115.107,50.547 L114.997,50.547 L116.117,44.784 L106.847,44.784 L101.398,72.818 L112.26,72.818 L114.627,60.638 C114.945,58.993 115.299,57.184 116.332,55.814 C117.522,54.222 119.191,54.111 120.944,54.111 L120.944,54.111 Z M150.075,66.672 L151.983,56.855 C152.761,52.851 153.902,49.229 150.731,46.65 C148.372,44.678 144.232,44.237 140.94,44.237 C134.254,44.237 127.448,46.844 125.923,54.133 L134.254,54.125 C135.042,51.769 137.193,50.819 139.334,50.819 C141.965,50.819 142.432,51.805 141.941,54.33 L141.898,54.546 C138.181,54.769 134.308,55.207 130.531,56.304 C126.403,57.512 122.369,60.472 121.505,64.914 C120.419,70.508 124.415,73.363 129.63,73.363 C133.468,73.363 136.829,72.155 139.652,68.918 C139.397,70.236 139.249,71.552 139.278,72.814 L149.757,72.814 C149.321,70.84 149.669,68.758 150.075,66.672 L150.075,66.672 Z M162.597,72.818 L168.046,44.784 L157.185,44.784 L151.736,72.818 L162.597,72.818 L162.597,72.818 Z" id="Shape" fill="#E31837" sketch:type="MSShapeGroup"></path>
                <path d="M22.016,34.639 C10.169,34.639 3.206,43.634 1.095,54.495 C-0.985,65.19 3.352,73.366 14.651,73.366 C23.319,73.366 30.714,67.769 33.4,58.418 L22.812,58.418 C21.649,61.996 19.704,64.7 16.39,64.7 C11.181,64.7 12.209,58.278 12.942,54.495 C13.635,50.931 15.38,43.085 20.482,43.085 C24.13,43.085 24.737,46.597 24.083,50.419 L34.786,50.419 L34.905,49.723 L34.937,49.723 C35.991,40.342 31.614,34.639 22.016,34.639" id="Shape" fill="#FFFFFF" sketch:type="MSShapeGroup"></path>
            </g>
        </g>
    </g>
</svg>