<?xml version="1.0" encoding="UTF-8" standalone="no"?>
<!-- Generator: Adobe Illustrator 12.0.0, SVG Export Plug-In . SVG Version: 6.00 Build 51448)  -->
<svg
   xmlns="http://www.w3.org/2000/svg"
   height="100"
   viewBox="0 0 480 401">
  <path
    fill="#FFFFFF"
    d="M444.0585938,0.5 c-31.6064453,12.3686523-66.0097656,19.1582031-102,19.1582031c-35.9892578,0-70.3925781-6.7895508-101.9995117-19.1582031    c-31.6069336,12.3686523-66.0102539,19.1582031-102,19.1582031S67.6655273,12.8686523,36.059082,0.5    C13.4384766,39.8037109,0.5,85.3867188,0.5,133.9912109C0.5,272.3984375,105.4160156,386.2978516,240.059082,400.5    c134.6430664-14.2021484,239.559082-128.1015625,239.559082-266.5087891    C479.6181641,85.3867188,466.6796875,39.8037109,444.0585938,0.5z" />

  <path
    fill="#003882"
    d="M13.7524414,108.5h452.612793c0.828125,8.3837891,1.2529297,16.8876953,1.2529297,25.4912109    c0,131.7705078-99.5634766,240.2998047-227.559082,254.4384766C112.0629883,374.2910156,12.5,265.7617188,12.5,133.9912109    C12.5,125.3876953,12.9238281,116.8837891,13.7524414,108.5z"
    id="path13"
    style="fill:#003f87;fill-opacity:1" />

  <path
    fill="#B01C2E"
    d="M464.8935547,96.5H15.2241211c4.2407227-28.9111328,13.3129883-56.2416992,26.3676758-81.1552734    c30.2124023,10.5712891,62.6806641,16.3134766,96.4672852,16.3134766c35.8583984,0,70.2319336-6.46875,102-18.3125    c31.7680664,11.84375,66.1420898,18.3125,101.9995117,18.3125c33.7871094,0,66.2548828-5.7421875,96.4677734-16.3134766    C451.5810547,40.2583008,460.6533203,67.5888672,464.8935547,96.5z"
    style="fill:#af1e2d;fill-opacity:1" />

  <text
    x="50%"
    y="280"
    font-size="180"
    font-family="sans-serif"
    fill="#fff"
    font-weight="400"
    text-anchor="middle"
    id="value">
  </text>

  <script>
    var val = location.search.substr(1);
    document.getElementById('value').textContent = val;
  </script>
</svg>
