<?xml version="1.0" encoding="utf-8"?>
<!-- Generator: Adobe Illustrator 12.0.0, SVG Export Plug-In . SVG Version: 6.00 Build 51448)  -->
<svg
  viewBox="0 0 448 384"
  height="100"
  xmlns="http://www.w3.org/2000/svg">
  <g>
    <g>
      <path fill-rule="evenodd" clip-rule="evenodd" fill="#FFFFFF" d="M224,384
        c-24.0244141-19.390625-54.5898438-31.0019531-87.8681641-31.0019531L105,353C47.0092773,353,0,305.9902344,0,248
        c0-21.9492188,6.793457-42.4121094,18.3095703-59.2612305C26.9482422,176.0732422,32,160.7636719,32,144.2758789
        C32,118.25,19.4160156,95.1645508,0,80.7714844L79.9990234,0C100.5126953,13.9814453,125.3017578,22.1547852,152,22.1547852
        c26.6977539,0,51.4863281-8.1728516,72-22.1542969c20.5136719,13.9814453,45.3017578,22.1542969,72,22.1542969
        S347.4873047,13.9814453,368.0009766,0L448,80.7714844C428.5839844,95.1645508,416,118.25,416,144.2758789
        c0,16.487793,5.0517578,31.7973633,13.6904297,44.4628906C441.2060547,205.5878906,448,226.0507813,448,248
        c0,57.9902344-47.0097656,105-105,105l-31.1318359-0.0019531C278.5898438,352.9980469,248.0234375,364.609375,224,384z"/>

        <path fill-rule="evenodd" clip-rule="evenodd" fill="none" stroke="#000000" stroke-width="0" stroke-linecap="round" stroke-linejoin="round" stroke-miterlimit="3.863693" d="
        M224,384c-24.0244141-19.390625-54.5898438-31.0019531-87.8681641-31.0019531L105,353C47.0092773,353,0,305.9902344,0,248
        c0-21.9492188,6.793457-42.4121094,18.3095703-59.2612305C26.9482422,176.0732422,32,160.7636719,32,144.2758789
        C32,118.25,19.4160156,95.1645508,0,80.7714844L79.9990234,0C100.5126953,13.9814453,125.3017578,22.1547852,152,22.1547852
        c26.6977539,0,51.4863281-8.1728516,72-22.1542969c20.5136719,13.9814453,45.3017578,22.1542969,72,22.1542969
        S347.4873047,13.9814453,368.0009766,0L448,80.7714844C428.5839844,95.1645508,416,118.25,416,144.2758789
        c0,16.487793,5.0517578,31.7973633,13.6904297,44.4628906C441.2060547,205.5878906,448,226.0507813,448,248
        c0,57.9902344-47.0097656,105-105,105l-31.1318359-0.0019531C278.5898438,352.9980469,248.0234375,364.609375,224,384z"/>
    </g>
    <g>
      <path fill-rule="evenodd" clip-rule="evenodd" d="M104.9995117,332C58.6074219,332,21,294.3925781,21,248
        c0-17.5673828,5.4345703-33.9316406,14.6523438-47.4199219C46.5942383,184.5385742,53,165.1191406,53,144.2758789
        c0-24.293457-8.6782227-46.5727539-23.065918-63.8852539l53.4360352-53.9521484
        C103.9238281,37.1201172,127.2792969,43.1547852,152,43.1547852c26.0825195,0,50.6455078-6.7182617,72-18.5229492
        c21.3544922,11.8046875,45.9169922,18.5229492,72,18.5229492c24.7207031,0,48.0761719-6.034668,68.6298828-16.7163086
        l53.4355469,53.9521484C403.6777344,97.7036133,395,119.9829102,395,144.2758789
        c0,20.8432617,6.4052734,40.2626953,17.3476563,56.3041992C421.5654297,214.0683594,427,230.4316406,427,248
        c0,46.3925781-37.6074219,84-84,84l-31.1308594-0.0019531c-32.3964844,0-62.5996094,9.5878906-87.8691406,26.0722656
        c-25.2705078-16.484375-55.4731445-26.0722656-87.8691406-26.0722656L104.9995117,332z M136.1313477,343.9980469L105,344
        c-53.0205078,0-96-42.9804688-96-96c0-20.0722656,6.2109375-38.7773438,16.7421875-54.1865234
        C35.3681641,179.7006836,41,162.6298828,41,144.2758789c0-25.2836914-10.6689453-48.0761719-27.7255859-64.1176758
        l67.9951172-68.6513672C101.9199219,23.9785156,126.1328125,31.1547852,152,31.1547852
        c26.3984375,0,51.074707-7.4746094,72-20.4238281c20.9248047,12.9492188,45.6015625,20.4238281,72,20.4238281
        c25.8671875,0,50.0800781-7.1762695,70.7304688-19.6479492l67.9951172,68.6513672
        C417.6689453,96.199707,407,118.9921875,407,144.2758789c0,18.3540039,5.6318359,35.4248047,15.2578125,49.5375977
        C432.7890625,209.2226563,439,227.9277344,439,248c0,53.0195313-42.9804688,96-96,96l-31.1318359-0.0019531
        c-32.8486328,0-63.2333984,10.640625-87.8681641,28.6542969
        C199.3652344,354.6386719,168.9804688,343.9980469,136.1313477,343.9980469z"/>
    </g>
  </g>

  <text
    x="50%"
    y="250"
    font-size="180"
    font-family="sans-serif"
    fill="#000"
    font-weight="400"
    text-anchor="middle"
    id="value">
  </text>

  <script>
    var val = location.search.substr(1);
    document.getElementById('value').textContent = val;
  </script>

</svg>
